<svg width="100" height="100" viewBox="0 0 100 100" fill="none" xmlns="http://www.w3.org/2000/svg">
<g clip-path="url(#clip0_7_43)">
<path d="M50 2.5C59.3946 2.5 68.5783 5.28583 76.3896 10.5052C84.2009 15.7246 90.2891 23.143 93.8843 31.8225C97.4795 40.502 98.4201 50.0527 96.5873 59.2668C94.7545 68.4809 90.2306 76.9446 83.5876 83.5876C76.9446 90.2306 68.4809 94.7545 59.2668 96.5873C50.0527 98.4201 40.502 97.4794 31.8226 93.8843C23.1431 90.2891 15.7246 84.2009 10.5052 76.3896C5.28585 68.5782 2.50002 59.3946 2.50002 50C2.51766 37.4076 7.52777 25.3361 16.4319 16.4319C25.3361 7.52775 37.4077 2.51764 50 2.5ZM50 0C40.111 0 30.444 2.93245 22.2215 8.42652C13.9991 13.9206 7.59043 21.7295 3.80605 30.8658C0.0216643 40.0021 -0.968503 50.0555 0.960759 59.7545C2.89002 69.4536 7.65206 78.3627 14.6447 85.3553C21.6373 92.348 30.5465 97.11 40.2455 99.0393C49.9446 100.969 59.9979 99.9784 69.1342 96.194C78.2705 92.4096 86.0794 86.001 91.5735 77.7785C97.0676 69.5561 100 59.8891 100 50C100 36.7392 94.7322 24.0215 85.3554 14.6447C75.9785 5.26784 63.2608 0 50 0V0Z" fill="#F0BC64"/>
<path d="M20.6833 28.0833V63.65L48.9167 49.8666V15.5833L20.6833 28.0833Z" stroke="#F0BC64" stroke-width="2" stroke-linejoin="round"/>
<path d="M67.5166 26.3166L48.9166 15.5833V49.8666L79.3166 67.7166L67.5166 26.3166Z" stroke="#F0BC64" stroke-width="2" stroke-linejoin="round"/>
<path d="M53.6667 84.4167L79.3167 67.7167L48.9167 49.8667L20.6833 63.65L53.6667 84.4167Z" stroke="#F0BC64" stroke-width="2" stroke-linejoin="round"/>
<path d="M29.1 34.05V49.7833L41.1833 44.45V28.7167L29.1 34.05Z" stroke="#F0BC64" stroke-width="2" stroke-linejoin="round"/>
</g>
<defs>
<clipPath id="clip0_7_43">
<rect width="100" height="100" fill="white"/>
</clipPath>
</defs>
</svg>
