<svg width="100" height="100" viewBox="0 0 100 100" fill="none" xmlns="http://www.w3.org/2000/svg">
<g clip-path="url(#clip0_7_54)">
<path d="M50 2.5C59.3946 2.5 68.5783 5.28583 76.3896 10.5052C84.2009 15.7246 90.2891 23.143 93.8843 31.8225C97.4795 40.502 98.4201 50.0527 96.5873 59.2668C94.7545 68.4809 90.2306 76.9446 83.5876 83.5876C76.9446 90.2306 68.4809 94.7545 59.2668 96.5873C50.0527 98.4201 40.502 97.4794 31.8226 93.8843C23.1431 90.2891 15.7246 84.2009 10.5052 76.3896C5.28585 68.5782 2.50002 59.3946 2.50002 50C2.51766 37.4076 7.52777 25.3361 16.4319 16.4319C25.3361 7.52775 37.4077 2.51764 50 2.5ZM50 0C40.111 0 30.444 2.93245 22.2215 8.42652C13.9991 13.9206 7.59043 21.7295 3.80605 30.8658C0.0216643 40.0021 -0.968503 50.0555 0.960759 59.7545C2.89002 69.4536 7.65206 78.3627 14.6447 85.3553C21.6373 92.348 30.5465 97.11 40.2455 99.0393C49.9446 100.969 59.9979 99.9784 69.1342 96.194C78.2705 92.4096 86.0794 86.001 91.5735 77.7785C97.0676 69.5561 100 59.8891 100 50C100 36.7392 94.7322 24.0215 85.3554 14.6447C75.9785 5.26784 63.2608 0 50 0V0Z" fill="#F0BC64"/>
<path d="M49.8 16.3167L64.9333 27.65H61.95V51.3334H38.25V28.05H35.0667L49.8 16.3167Z" stroke="#F0BC64" stroke-width="2" stroke-linejoin="round"/>
<path d="M54.2667 31.1167H45.45V44.0167H54.2667V31.1167Z" stroke="#F0BC64" stroke-width="2" stroke-linejoin="round"/>
<path d="M32.3333 58.5167H22.9333V81.4667H32.3333V58.5167Z" stroke="#F0BC64" stroke-width="2" stroke-linejoin="round"/>
<path d="M33.05 61.7667C33.05 61.7667 38.2667 57.45 42.1333 57.65C44.533 57.8864 46.8793 58.5054 49.0833 59.4833C49.8474 59.8013 50.6892 59.8826 51.5 59.7167C54.35 59.1333 61.0833 58.1667 61.6333 61.7667C61.6333 61.7667 62.2667 64.3167 58.6833 66.5333C56.4 67.9333 52.4167 69.2 45.5 69.6" stroke="#F0BC64" stroke-width="2" stroke-miterlimit="10" stroke-linecap="round"/>
<path d="M61.6667 63.6167L72.3334 54.4834C72.6294 54.2278 72.9804 54.0437 73.359 53.9455C73.7375 53.8472 74.1337 53.8374 74.5167 53.9167C75.0523 54.0387 75.551 54.2869 75.9714 54.6406C76.3917 54.9943 76.7215 55.4432 76.9334 55.95C77.0547 56.3336 77.0755 56.742 76.9938 57.136C76.9121 57.5299 76.7306 57.8963 76.4667 58.2C74.3834 60.75 65.6334 71.1834 60.3667 73.8834C54.35 76.95 54.3 77.0334 48.4167 77.2167C42.5333 77.4 33.6 76.3167 32.8333 75.7834" stroke="#F0BC64" stroke-width="2" stroke-miterlimit="10"/>
</g>
<defs>
<clipPath id="clip0_7_54">
<rect width="100" height="100" fill="white"/>
</clipPath>
</defs>
</svg>
