<svg width="100" height="100" viewBox="0 0 100 100" fill="none" xmlns="http://www.w3.org/2000/svg">
<g clip-path="url(#clip0_9_22)">
<path d="M49.8834 2.5C59.2549 2.5 68.416 5.27898 76.2081 10.4855C84.0003 15.6921 90.0735 23.0923 93.6598 31.7505C97.2462 40.4087 98.1845 49.9359 96.3562 59.1274C94.5279 68.3188 90.0151 76.7617 83.3884 83.3884C76.7617 90.0151 68.3188 94.5279 59.1274 96.3562C49.9359 98.1845 40.4087 97.2462 31.7505 93.6598C23.0924 90.0735 15.6921 84.0003 10.4856 76.2081C5.27901 68.416 2.50002 59.2549 2.50002 49.8833C2.51326 37.3206 7.50966 25.2761 16.3929 16.3929C25.2761 7.50964 37.3206 2.51324 49.8834 2.5ZM49.8834 0C40.0174 0 30.3729 2.92561 22.1697 8.40686C13.9664 13.8881 7.57272 21.6788 3.79716 30.7938C0.0216134 39.9088 -0.966243 49.9387 0.958517 59.6151C2.88328 69.2915 7.6342 78.1799 14.6105 85.1562C21.5868 92.1325 30.4752 96.8834 40.1516 98.8082C49.828 100.733 59.8579 99.7451 68.9729 95.9695C78.0879 92.194 85.8786 85.8003 91.3598 77.597C96.8411 69.3938 99.7667 59.7493 99.7667 49.8833C99.7667 36.6535 94.5111 23.9654 85.1562 14.6105C75.8013 5.25555 63.1132 0 49.8834 0V0Z" fill="#F0BC64"/>
<path d="M72.1167 25.1998H57.2167V20.7998H42.9667V25.1998H27.3V75.6165H72.1167V25.1998Z" stroke="#F0BC64" stroke-width="2" stroke-linejoin="round"/>
<path d="M57.2167 25.2002V28.3335H42.9667V25.2002" stroke="#F0BC64" stroke-width="2" stroke-linejoin="round"/>
<path d="M32.5166 40.9336H37.5166" stroke="#F0BC64" stroke-width="2" stroke-miterlimit="10"/>
<path d="M42.2167 40.9336H67.2" stroke="#F0BC64" stroke-width="2" stroke-miterlimit="10"/>
<path d="M32.3833 50.7168H37.3666" stroke="#F0BC64" stroke-width="2" stroke-miterlimit="10"/>
<path d="M42.0667 50.7168H67.05" stroke="#F0BC64" stroke-width="2" stroke-miterlimit="10"/>
<path d="M32.3833 61.1499H37.3666" stroke="#F0BC64" stroke-width="2" stroke-miterlimit="10"/>
<path d="M42.0667 61.1499H67.05" stroke="#F0BC64" stroke-width="2" stroke-miterlimit="10"/>
</g>
<defs>
<clipPath id="clip0_9_22">
<rect width="100" height="100" fill="white"/>
</clipPath>
</defs>
</svg>
