<svg width="100" height="100" viewBox="0 0 100 100" fill="none" xmlns="http://www.w3.org/2000/svg">
<g clip-path="url(#clip0_11_10)">
<path d="M52.1166 68.867H29.95V34.5337" stroke="#F0BC64" stroke-width="2" stroke-linecap="round" stroke-linejoin="round"/>
<path d="M65.85 34V56.65" stroke="#F0BC64" stroke-width="2" stroke-miterlimit="10" stroke-linecap="round"/>
<path d="M50.25 2.5C59.5959 2.49671 68.7328 5.26507 76.5053 10.455C84.2777 15.6449 90.3364 23.0231 93.9152 31.6567C97.494 40.2902 98.4321 49.7911 96.6108 58.9578C94.7896 68.1245 90.2908 76.5452 83.6834 83.1549C77.076 89.7646 68.6569 94.2664 59.4908 96.0909C50.3248 97.9154 40.8235 96.9806 32.1888 93.4049C23.554 89.8291 16.1735 83.773 10.9809 76.0024C5.78828 68.2318 3.01669 59.0959 3.01669 49.75C3.02992 37.2255 8.00999 25.2175 16.8646 16.3597C25.7192 7.50196 37.7255 2.51765 50.25 2.5ZM50.25 2.79387e-06C40.4104 2.79387e-06 30.7918 2.91779 22.6104 8.38439C14.4291 13.851 8.05248 21.6209 4.28702 30.7115C0.521556 39.8021 -0.46366 49.8052 1.45595 59.4557C3.37557 69.1063 8.1138 77.9709 15.0715 84.9286C22.0291 91.8862 30.8937 96.6245 40.5443 98.5441C50.1948 100.464 60.1979 99.4785 69.2885 95.713C78.3792 91.9475 86.149 85.571 91.6156 77.3896C97.0822 69.2083 100 59.5896 100 49.75C100.002 43.2161 98.7169 36.7458 96.2175 30.7089C93.7181 24.672 90.0536 19.1867 85.4335 14.5666C80.8133 9.94641 75.3281 6.28193 69.2911 3.78254C63.2542 1.28314 56.7839 -0.00218721 50.25 2.79387e-06Z" fill="#F0BC64"/>
<path d="M20.25 42.8501L48.2167 18.8501L76.3833 42.8501" stroke="#F0BC64" stroke-width="2" stroke-linecap="round" stroke-linejoin="round"/>
<path d="M50.7334 49.0832C50.7334 49.0832 51.6834 44.3832 49.45 42.7332C47.2167 41.0832 41.8167 42.2999 40.8167 41.9499C39.2203 40.8905 37.73 39.6793 36.3667 38.3332C36.3389 38.3082 36.3047 38.2914 36.2679 38.2848C36.2311 38.2783 36.1932 38.2822 36.1585 38.296C36.1238 38.3099 36.0937 38.3333 36.0716 38.3634C36.0494 38.3935 36.0362 38.4293 36.0334 38.4665C35.8667 40.4999 35.25 49.2832 36.95 51.6832C38.8834 54.3999 41.95 55.0165 45.7834 54.3999L50.7334 49.0832Z" stroke="#F0BC64" stroke-width="2" stroke-linecap="round" stroke-linejoin="round"/>
<path d="M45.7833 54.4335L74.4333 80.5168C74.4333 80.5168 78.05 80.9668 77.0167 77.6335L50.7333 49.0835" stroke="#F0BC64" stroke-width="2" stroke-linecap="round" stroke-linejoin="round"/>
<path d="M56.2666 55.25L51.6666 59.5833" stroke="#F0BC64" stroke-width="1.5" stroke-linecap="round" stroke-linejoin="round"/>
</g>
<defs>
<clipPath id="clip0_11_10">
<rect width="100" height="100" fill="white"/>
</clipPath>
</defs>
</svg>
