<svg width="100" height="100" viewBox="0 0 100 100" fill="none" xmlns="http://www.w3.org/2000/svg">
<g clip-path="url(#clip0_9_2)">
<path d="M29.0167 63.8501V34.8167L50.1167 22.4834L71.9667 35.0167V63.8501L50.1167 76.9667L29.0167 63.8501Z" stroke="#F0BC64" stroke-width="2" stroke-linecap="round" stroke-linejoin="round"/>
<path d="M50.1166 2.5C59.4882 2.5 68.6492 5.27898 76.4414 10.4855C84.2335 15.6921 90.3068 23.0923 93.8931 31.7505C97.4795 40.4087 98.4178 49.9359 96.5895 59.1274C94.7612 68.3188 90.2484 76.7617 83.6217 83.3884C76.995 90.0151 68.5521 94.5279 59.3607 96.3562C50.1692 98.1845 40.642 97.2462 31.9838 93.6598C23.3256 90.0735 15.9254 84.0003 10.7188 76.2081C5.51228 68.416 2.7333 59.2549 2.7333 49.8833C2.74653 37.3206 7.74294 25.2761 16.6262 16.3929C25.5094 7.50964 37.5539 2.51324 50.1166 2.5ZM50.1166 0C40.2506 0 30.6062 2.92561 22.4029 8.40686C14.1997 13.8881 7.80599 21.6788 4.03044 30.7938C0.25489 39.9088 -0.732966 49.9387 1.19179 59.6151C3.11655 69.2915 7.86748 78.1799 14.8438 85.1562C21.8201 92.1325 30.7085 96.8834 40.3849 98.8082C50.0613 100.733 60.0912 99.7451 69.2062 95.9695C78.3211 92.194 86.1119 85.8003 91.5931 77.597C97.0744 69.3938 100 59.7493 100 49.8833C100 43.3326 98.7097 36.8459 96.2028 30.7938C93.6959 24.7417 90.0216 19.2426 85.3895 14.6105C80.7574 9.97839 75.2583 6.30401 69.2062 3.79714C63.154 1.29027 56.6674 0 50.1166 0V0Z" fill="#F0BC64"/>
<path d="M29.0167 63.8501L50.1167 49.8834V22.4834" stroke="#F0BC64" stroke-width="2" stroke-linecap="round" stroke-linejoin="round"/>
<path d="M71.9667 63.85L57.7 54.7333L50.1167 49.8833" stroke="#F0BC64" stroke-width="2" stroke-linecap="round" stroke-linejoin="round"/>
<path d="M37.9667 67.8167L57.7 54.7334L65.0333 59.4167L43.65 72.9501L50.1167 76.9667L57.4667 72.5501L36 59.2167L42.8 54.7334L64.2833 68.4667" stroke="#F0BC64" stroke-width="2" stroke-linecap="round" stroke-linejoin="round"/>
</g>
<defs>
<clipPath id="clip0_9_2">
<rect width="100" height="100" fill="white"/>
</clipPath>
</defs>
</svg>
